{
  "accessors": [
    {
      "bufferView": 2,
      "componentType": 5126,
      "count": 11500,
      "max": [
        1.432839035987854,
        0.5866640210151672,
        0.311612993478775
      ],
      "min": [
        -1.3657469749450684,
        -0.6338260173797607,
        -0.017976000905036926
      ],
      "type": "VEC3"
    },
    {
      "bufferView": 2,
      "byteOffset": 138000,
      "componentType": 5126,
      "count": 11500,
      "max": [
        1.0,
        1.0,
        1.0
      ],
      "min": [
        -1.0,
        -1.0,
        -1.0
      ],
      "type": "VEC3"
    },
    {
      "bufferView": 3,
      "componentType": 5126,
      "count": 11500,
      "max": [
        1.0,
        1.0,
        1.0,
        1.0
      ],
      "min": [
        -1.0,
        -1.0,
        -1.0,
        -1.0
      ],
      "type": "VEC4"
    },
    {
      "bufferView": 1,
      "componentType": 5126,
      "count": 11500,
      "max": [
        1.996093988418579,
        0.9918500185012817
      ],
      "min": [
        0.0039059999398887157,
        0.0039059999398887157
      ],
      "type": "VEC2"
    },
    {
      "bufferView": 0,
      "componentType": 5125,
      "count": 30996,
      "type": "SCALAR"
    },
    {
      "bufferView": 2,
      "byteOffset": 276000,
      "componentType": 5126,
      "count": 9240,
      "max": [
        1.4264730215072632,
        0.4947179853916168,
        6.398289203643799
      ],
      "min": [
        -1.3364559412002563,
        -0.6061369776725769,
        0.038474999368190765
      ],
      "type": "VEC3"
    },
    {
      "bufferView": 2,
      "byteOffset": 386880,
      "componentType": 5126,
      "count": 9240,
      "max": [
        1.0,
        1.0,
        1.0
      ],
      "min": [
        -1.0,
        -1.0,
        -1.0
      ],
      "type": "VEC3"
    },
    {
      "bufferView": 3,
      "byteOffset": 184000,
      "componentType": 5126,
      "count": 9240,
      "max": [
        1.0,
        1.0,
        1.0,
        1.0
      ],
      "min": [
        -1.0,
        -1.0,
        -1.0,
        -1.0
      ],
      "type": "VEC4"
    },
    {
      "bufferView": 1,
      "byteOffset": 92000,
      "componentType": 5126,
      "count": 9240,
      "max": [
        1.9900779724121094,
        0.9914360046386719
      ],
      "min": [
        0.0039059999398887157,
        0.0039059999398887157
      ],
      "type": "VEC2"
    },
    {
      "bufferView": 0,
      "byteOffset": 123984,
      "componentType": 5125,
      "count": 21540,
      "type": "SCALAR"
    },
    {
      "bufferView": 2,
      "byteOffset": 497760,
      "componentType": 5126,
      "count": 2332,
      "max": [
        1.2833590507507324,
        0.36758700013160706,
        0.2302750051021576
      ],
      "min": [
        -1.0051820278167725,
        -0.3739280104637146,
        0.10532999783754349
      ],
      "type": "VEC3"
    },
    {
      "bufferView": 2,
      "byteOffset": 525744,
      "componentType": 5126,
      "count": 2332,
      "max": [
        1.0,
        1.0,
        1.0
      ],
      "min": [
        -1.0,
        -1.0,
        -1.0
      ],
      "type": "VEC3"
    },
    {
      "bufferView": 3,
      "byteOffset": 331840,
      "componentType": 5126,
      "count": 2332,
      "max": [
        1.0,
        1.0,
        1.0,
        1.0
      ],
      "min": [
        -1.0,
        -1.0,
        -1.0,
        -1.0
      ],
      "type": "VEC4"
    },
    {
      "bufferView": 1,
      "byteOffset": 165920,
      "componentType": 5126,
      "count": 2332,
      "max": [
        1.9779139757156372,
        0.9773409962654114
      ],
      "min": [
        0.0039059999398887157,
        0.020663000643253326
      ],
      "type": "VEC2"
    },
    {
      "bufferView": 0,
      "byteOffset": 210144,
      "componentType": 5125,
      "count": 6396,
      "type": "SCALAR"
    }
  ],
  "asset": {
    "extras": {
      "author": "Malacodart (https://sketchfab.com/malacodart)",
      "license": "CC-BY-4.0 (http://creativecommons.org/licenses/by/4.0/)",
      "source": "https://sketchfab.com/3d-models/starlink-spacex-satellite-0a60f6720c5141c9a1c6d71aac108b31",
      "title": "Starlink Spacex Satellite"
    },
    "generator": "Sketchfab-13.68.0",
    "version": "2.0"
  },
  "bufferViews": [
    {
      "buffer": 0,
      "byteLength": 235728,
      "name": "floatBufferViews",
      "target": 34963
    },
    {
      "buffer": 0,
      "byteLength": 184576,
      "byteOffset": 235728,
      "byteStride": 8,
      "name": "floatBufferViews",
      "target": 34962
    },
    {
      "buffer": 0,
      "byteLength": 553728,
      "byteOffset": 420304,
      "byteStride": 12,
      "name": "floatBufferViews",
      "target": 34962
    },
    {
      "buffer": 0,
      "byteLength": 369152,
      "byteOffset": 974032,
      "byteStride": 16,
      "name": "floatBufferViews",
      "target": 34962
    }
  ],
  "buffers": [
    {
      "byteLength": 1343184,
      "uri": "scene.bin"
    }
  ],
  "images": [
    {
      "uri": "textures/Starlink_baseColor.png"
    },
    {
      "uri": "textures/Starlink_metallicRoughness.png"
    },
    {
      "uri": "textures/Starlink_normal.png"
    }
  ],
  "materials": [
    {
      "doubleSided": true,
      "name": "Starlink",
      "normalTexture": {
        "index": 2
      },
      "pbrMetallicRoughness": {
        "baseColorTexture": {
          "index": 0
        },
        "metallicRoughnessTexture": {
          "index": 1
        }
      }
    }
  ],
  "meshes": [
    {
      "name": "Object_0",
      "primitives": [
        {
          "attributes": {
            "NORMAL": 1,
            "POSITION": 0,
            "TANGENT": 2,
            "TEXCOORD_0": 3
          },
          "indices": 4,
          "material": 0,
          "mode": 4
        }
      ]
    },
    {
      "name": "Object_1",
      "primitives": [
        {
          "attributes": {
            "NORMAL": 6,
            "POSITION": 5,
            "TANGENT": 7,
            "TEXCOORD_0": 8
          },
          "indices": 9,
          "material": 0,
          "mode": 4
        }
      ]
    },
    {
      "name": "Object_2",
      "primitives": [
        {
          "attributes": {
            "NORMAL": 11,
            "POSITION": 10,
            "TANGENT": 12,
            "TEXCOORD_0": 13
          },
          "indices": 14,
          "material": 0,
          "mode": 4
        }
      ]
    }
  ],
  "nodes": [
    {
      "children": [
        1
      ],
      "matrix": [
        1.0,
        0.0,
        0.0,
        0.0,
        0.0,
        2.220446049250313e-16,
        -1.0,
        0.0,
        0.0,
        1.0,
        2.220446049250313e-16,
        0.0,
        0.0,
        0.0,
        0.0,
        1.0
      ],
      "name": "Sketchfab_model"
    },
    {
      "children": [
        2,
        3,
        4
      ],
      "name": "starlink.obj.cleaner.materialmerger.gles"
    },
    {
      "mesh": 0,
      "name": "Object_2"
    },
    {
      "mesh": 1,
      "name": "Object_3"
    },
    {
      "mesh": 2,
      "name": "Object_4"
    }
  ],
  "samplers": [
    {
      "magFilter": 9729,
      "minFilter": 9987,
      "wrapS": 10497,
      "wrapT": 10497
    }
  ],
  "scene": 0,
  "scenes": [
    {
      "name": "Sketchfab_Scene",
      "nodes": [
        0
      ]
    }
  ],
  "textures": [
    {
      "sampler": 0,
      "source": 0
    },
    {
      "sampler": 0,
      "source": 1
    },
    {
      "sampler": 0,
      "source": 2
    }
  ]
}
